# xmcd CD Database Entry
#
# Track frame offsets:
# 150
# 60190
# 97452
# 136111
# 157413
# 186000
# 212423
# 271006
# 297589
#
# Disc length: 4300 seconds
#
# Revision: 4
# Processed by: cddbd v1.5.1PL0 Copyright (c) Steve Scherf et al.
# Submitted via: tcd 2.0b
#
DISCID=8510ca09
DTITLE=Dave Matthews Band/10-27-1994 Disk1
DYEAR=1900
DGENRE=
TTITLE0=Seek Up
TTITLE1=Dancing Nancies
TTITLE2=Warehouse
TTITLE3=The Song That Jane Likes
TTITLE4=The Best of What's Around
TTITLE5=Rhyme and Reason
TTITLE6=Jimi Thing
TTITLE7=Pay For What You Get
TTITLE8=What Would You Say?
EXTD=Barrymore Theatre\nMadison WI
EXTT0=
EXTT1=
EXTT2=
EXTT3=
EXTT4=
EXTT5=
EXTT6=
EXTT7=
EXTT8=
PLAYORDER=
